<svg viewBox="0 0 48 48" xmlns="http://www.w3.org/2000/svg" xml:space="preserve" style="fill-rule:evenodd;clip-rule:evenodd;stroke-linejoin:round;stroke-miterlimit:2">
  <path d="M.093-.099c.008-.04.02-.068.037-.084.017-.015.043-.023.08-.023.037 0 .062.005.075.015.013.01.019.027.019.05a.3.3 0 0 1-.056.156L.16.151.08.122l.056-.144C.105-.027.09-.044.09-.072l.003-.027Zm-.247.051h.213c.008.025.021.042.038.049l-.251-.049Zm.226-.097A.255.255 0 0 0 .063-.1l-.222-.045h.231Z" style="fill:#991b1b;fill-rule:nonzero" transform="translate(17.05 26.637) scale(95.86452)"/>
</svg>
