<svg width="100%" height="100%" viewBox="0 0 751 95" version="1.1" xmlns="http://www.w3.org/2000/svg" xml:space="preserve" style="fill-rule:evenodd;clip-rule:evenodd;stroke-linejoin:round;stroke-miterlimit:2;">
    <style>
        .fast {
            fill: #991b1b;
        }
        .csv {
            fill: #94a3b8;
        }
    </style>
    <g transform="matrix(1,0,0,1,218.57,-218.33)">
        <g transform="matrix(144,0,0,144,197.43,310.49)">
            <path d="M0.192,-0.317C0.191,-0.312 0.189,-0.304 0.188,-0.295L-0.205,-0.337L0.195,-0.337L0.192,-0.317ZM0.181,-0.241C0.179,-0.226 0.178,-0.212 0.178,-0.199L-0.216,-0.241L0.181,-0.241ZM0.219,-0.433L0.207,-0.392L-0.181,-0.433L0.219,-0.433ZM0.179,-0.145C0.182,-0.126 0.184,-0.112 0.186,-0.103L-0.203,-0.145L0.179,-0.145ZM0.26,-0.529C0.251,-0.512 0.244,-0.498 0.24,-0.489L-0.134,-0.529L0.26,-0.529ZM0.209,-0.048C0.218,-0.033 0.228,-0.02 0.239,-0.011L-0.107,-0.048L0.209,-0.048ZM0.355,-0.625C0.336,-0.613 0.321,-0.602 0.31,-0.592L0.004,-0.625L0.355,-0.625ZM0.443,0.015C0.359,0.015 0.299,-0.001 0.263,-0.034C0.226,-0.067 0.208,-0.117 0.208,-0.185C0.208,-0.214 0.213,-0.256 0.222,-0.312C0.242,-0.427 0.277,-0.51 0.326,-0.562C0.375,-0.614 0.452,-0.64 0.558,-0.64C0.583,-0.64 0.611,-0.638 0.643,-0.633C0.674,-0.628 0.697,-0.621 0.712,-0.614L0.656,-0.461C0.617,-0.47 0.58,-0.475 0.546,-0.475C0.511,-0.475 0.487,-0.472 0.472,-0.465C0.457,-0.458 0.448,-0.445 0.445,-0.425L0.399,-0.163C0.423,-0.158 0.448,-0.155 0.473,-0.155C0.527,-0.155 0.576,-0.163 0.621,-0.179L0.605,-0.011C0.562,0.006 0.508,0.015 0.443,0.015Z" class="csv" style="fill-rule:nonzero;"/>
        </g>
        <g transform="matrix(144,0,0,144,295.782,310.49)">
            <path d="M0.258,-0.388L-0.166,-0.433L0.265,-0.433C0.262,-0.42 0.259,-0.405 0.258,-0.388ZM0.292,-0.529L0.277,-0.485L-0.138,-0.529L0.292,-0.529ZM0.258,-0.337C0.259,-0.319 0.262,-0.304 0.266,-0.292L-0.157,-0.337L0.258,-0.337ZM0.398,-0.196L-0.131,-0.241L0.3,-0.241C0.322,-0.22 0.355,-0.205 0.398,-0.196ZM0.367,-0.625C0.352,-0.615 0.337,-0.601 0.323,-0.584L-0.063,-0.625L0.367,-0.625ZM-0.148,-0.145L0.226,-0.145L0.211,-0.101L-0.148,-0.145ZM-0.165,-0.048L0.194,-0.048L0.179,-0.004L-0.165,-0.048ZM0.269,-0.176C0.325,-0.161 0.376,-0.153 0.423,-0.153C0.469,-0.153 0.507,-0.155 0.536,-0.159L0.544,-0.209L0.461,-0.217C0.398,-0.223 0.353,-0.237 0.327,-0.26C0.3,-0.283 0.287,-0.315 0.287,-0.356C0.287,-0.374 0.289,-0.394 0.293,-0.416C0.308,-0.501 0.336,-0.56 0.377,-0.592C0.418,-0.624 0.48,-0.64 0.565,-0.64C0.649,-0.64 0.723,-0.632 0.788,-0.615L0.736,-0.455C0.678,-0.465 0.632,-0.47 0.597,-0.47C0.562,-0.47 0.531,-0.468 0.506,-0.465L0.498,-0.416L0.565,-0.409C0.633,-0.402 0.681,-0.386 0.71,-0.361C0.739,-0.335 0.753,-0.302 0.753,-0.26C0.753,-0.217 0.744,-0.173 0.726,-0.128C0.716,-0.105 0.705,-0.085 0.695,-0.07C0.684,-0.054 0.67,-0.041 0.653,-0.03C0.635,-0.019 0.62,-0.01 0.606,-0.005C0.592,0.001 0.574,0.005 0.552,0.008C0.521,0.013 0.483,0.015 0.438,0.015C0.355,0.015 0.28,0.006 0.213,-0.011L0.269,-0.176Z" class="csv" style="fill-rule:nonzero;"/>
        </g>
        <g transform="matrix(144,0,0,144,410.694,310.49)">
            <path d="M-0.146,-0.048L0.275,-0.048L0.278,-0.003L-0.146,-0.048ZM-0.152,-0.145L0.269,-0.145L0.272,-0.1L-0.152,-0.145ZM-0.175,-0.529L0.246,-0.529L0.249,-0.484L-0.175,-0.529ZM-0.169,-0.433L0.252,-0.433L0.254,-0.388L-0.169,-0.433ZM-0.18,-0.625L0.241,-0.625L0.243,-0.58L-0.18,-0.625ZM-0.163,-0.337L0.257,-0.337L0.26,-0.292L-0.163,-0.337ZM-0.157,-0.241L0.263,-0.241L0.266,-0.196L-0.157,-0.241ZM0.482,-0.625L0.482,-0.228L0.491,-0.228L0.642,-0.625L0.843,-0.625L0.586,-0L0.308,-0L0.271,-0.625L0.482,-0.625Z" class="csv" style="fill-rule:nonzero;"/>
        </g>
    </g>
    <g transform="matrix(1,0,0,1,-161.43,-218.33)">
        <g transform="matrix(144,0,0,144,197.43,310.49)">
            <path d="M0.596,-0.232L0.434,-0.232L0.394,-0L0.204,-0L0.314,-0.625L0.704,-0.625L0.651,-0.465L0.475,-0.465L0.461,-0.381L0.623,-0.381L0.596,-0.232ZM0.174,-0.003L-0.25,-0.048L0.182,-0.048L0.174,-0.003ZM0.208,-0.196L-0.216,-0.241L0.216,-0.241L0.208,-0.196ZM0.225,-0.292L-0.199,-0.337L0.233,-0.337L0.225,-0.292ZM0.242,-0.388L-0.182,-0.433L0.25,-0.433L0.242,-0.388ZM0.259,-0.484L-0.165,-0.529L0.266,-0.529L0.259,-0.484ZM0.191,-0.1L-0.233,-0.145L0.199,-0.145L0.191,-0.1ZM0.275,-0.58L-0.148,-0.625L0.283,-0.625L0.275,-0.58Z" class="fast" style="fill-rule:nonzero;"/>
        </g>
        <g transform="matrix(144,0,0,144,284.694,310.49)">
            <path d="M0.526,-0L0.522,-0.081L0.396,-0.081L0.365,-0L0.192,-0L0.414,-0.529L0.662,-0.529L0.701,-0L0.526,-0ZM0.522,-0.224L0.522,-0.376L0.508,-0.376L0.449,-0.224L0.522,-0.224ZM0.16,-0.004L-0.25,-0.048L0.179,-0.048L0.16,-0.004ZM0.201,-0.101L-0.209,-0.145L0.22,-0.145L0.201,-0.101ZM0.242,-0.197L-0.168,-0.241L0.26,-0.241L0.242,-0.197ZM0.282,-0.293L-0.127,-0.337L0.301,-0.337L0.282,-0.293ZM0.323,-0.389L-0.086,-0.433L0.341,-0.433L0.323,-0.389ZM0.363,-0.486L-0.045,-0.529L0.381,-0.529L0.363,-0.486Z" class="fast" style="fill-rule:nonzero;"/>
        </g>
        <g transform="matrix(144,0,0,144,393.846,310.49)">
            <path d="M-0.238,-0.048L0.194,-0.048L0.18,-0.003L-0.238,-0.048ZM0.27,-0.433C0.266,-0.422 0.262,-0.407 0.257,-0.388L-0.161,-0.433L0.27,-0.433ZM0.245,-0.3L0.245,-0.292L-0.179,-0.337L0.247,-0.337C0.246,-0.321 0.245,-0.309 0.245,-0.3ZM0.212,-0.101L-0.205,-0.145L0.226,-0.145L0.212,-0.101ZM0.339,-0.529C0.321,-0.516 0.307,-0.502 0.298,-0.487L-0.092,-0.529L0.339,-0.529ZM0.254,-0.241C0.26,-0.224 0.27,-0.209 0.283,-0.196L-0.14,-0.241L0.254,-0.241ZM0.653,-0.372C0.608,-0.383 0.569,-0.388 0.537,-0.388C0.505,-0.388 0.481,-0.387 0.466,-0.385L0.461,-0.356L0.511,-0.35C0.618,-0.336 0.672,-0.292 0.672,-0.217C0.672,-0.208 0.67,-0.192 0.666,-0.169C0.662,-0.145 0.655,-0.122 0.646,-0.1C0.637,-0.078 0.625,-0.06 0.611,-0.047C0.596,-0.033 0.582,-0.022 0.569,-0.014C0.555,-0.005 0.537,0.001 0.516,0.004C0.483,0.009 0.438,0.012 0.383,0.012C0.327,0.012 0.271,0.004 0.214,-0.011L0.263,-0.159C0.315,-0.144 0.361,-0.137 0.4,-0.137C0.439,-0.137 0.466,-0.138 0.482,-0.14L0.487,-0.172L0.424,-0.179C0.37,-0.185 0.332,-0.198 0.309,-0.217C0.286,-0.236 0.275,-0.264 0.275,-0.3C0.275,-0.313 0.277,-0.33 0.28,-0.35C0.293,-0.421 0.317,-0.471 0.352,-0.498C0.387,-0.525 0.44,-0.539 0.511,-0.539C0.582,-0.539 0.645,-0.532 0.701,-0.518L0.653,-0.372Z" class="fast" style="fill-rule:nonzero;"/>
        </g>
        <g transform="matrix(144,0,0,144,497.238,310.49)">
            <path d="M0.627,-0.379L0.519,-0.379L0.453,-0L0.277,-0L0.343,-0.379L0.232,-0.379L0.259,-0.529L0.654,-0.529L0.627,-0.379ZM0.247,-0.003L-0.177,-0.048L0.255,-0.048L0.247,-0.003ZM0.281,-0.196L-0.143,-0.241L0.289,-0.241L0.281,-0.196ZM0.298,-0.292L-0.126,-0.337L0.306,-0.337L0.298,-0.292ZM0.202,-0.388L-0.222,-0.433L0.21,-0.433L0.202,-0.388ZM0.219,-0.484L-0.205,-0.529L0.226,-0.529L0.219,-0.484ZM0.264,-0.1L-0.16,-0.145L0.272,-0.145L0.264,-0.1Z" class="fast" style="fill-rule:nonzero;"/>
        </g>
    </g>
</svg>
