<svg xml:space="preserve" width="542.041" height="129.179" xmlns="http://www.w3.org/2000/svg"><path d="m139.777 471.788-30.761-22.351 4.589-5.321c.004 0 9.762-10.898 13.473-15.047-3.555-.765-19.937-4.312-19.937-4.312l-6.852-1.602 12.184-37.507 6.48 2.726s13.508 5.981 18.621 8.235c-.375-3.633-2.086-20.321-2.086-20.321l-.586-7.015h39.43l-.586 7c0 .007-1.512 14.761-2.086 20.336 3.336-1.477 18.637-8.239 18.637-8.239l6.465-2.715 12.183 37.493-6.84 1.609c-.003 0-14.492 3.117-19.968 4.297 2.429 2.711 13.48 15.055 13.48 15.055l4.598 5.328-31.895 23.179-3.648-6.015c-.012-.024-7.277-12.524-10.055-17.305a94171.193 94171.193 0 0 1-10.058 17.305l-3.641 6.015z" style="fill:#393D29;fill-opacity:1;fill-rule:nonzero;stroke:none" transform="matrix(1.25 0 0 -1.25 -125.361 590.77)"/>
    <path d="M198.383 421.796s-16.449 3.859-31.164 6.469c10.328 10.726 21.265 23.398 21.265 23.398l-20.523 14.922s-8.598-14.187-15.59-27.273c-6.988 13.086-15.586 27.273-15.586 27.273l-20.531-14.922s10.941-12.672 21.273-23.398c2.399-2.387 7.231-7.336 7.231-7.336s-1.024-5.524-1.594-10.211c-2.066-14.797-3.48-31.656-3.48-31.656h25.379s-1.418 16.859-3.485 31.656c13.418-6.531 28.965-13.063 28.965-13.063z"
          style="fill:#ff5e00;fill-opacity:1;fill-rule:nonzero;stroke:none"
          transform="matrix(1.25 0 0 -1.25 -125.361 590.77)"/>
    <path d="M140.379 409.382c.074.547.144 1.109.223 1.648 0 0 1.082 6.954 1.406 9.008-1.918 1.946-6.317 6.399-6.34 6.43-.395.406-.793.832-1.188 1.234-.71-.133-1.351-.238-1.675-.304-13.297-2.516-26.442-5.598-26.442-5.598l7.84-24.145s12.352 5.188 24.547 10.946c.316.156.938.453 1.629.781"
          style="fill:#fff;fill-opacity:1;fill-rule:nonzero;stroke:none"
          transform="matrix(1.25 0 0 -1.25 -125.361 590.77)"/>
    <path d="M296.523 418.804c-1.105-2.531-2.304-9.106-2.253-12.426.054-3.164 1.57-3.887 2.718-3.887 2.789 0 3.965 2.696 4.582 4.75.883 2.852 1.825 7.446 1.774 10.938-.016 1.183-.211 3.953-2.86 3.953-2.367 0-3.472-2.219-3.961-3.328m26.059-2.453c.199-13.383-9.859-25.735-27.066-25.735-17.911 0-20.379 11.485-20.465 17.024-.192 13.074 8.844 26.367 27.265 26.367 14.836 0 20.125-8.867 20.266-17.656M366.313 391.562H349.25l1.191 7.125h-.148c-4.254-7.524-10.77-8.067-14.07-8.067-5.735 0-10.504 2.688-10.61 9.582-.019 1.344.11 2.614.301 3.953l4.938 28.907h18.054l-4.074-24c-.199-1.024-.262-1.977-.25-3.008.012-.469.121-2.617 2.418-2.617 3.293 0 3.879 3.726 4.211 5.625l4.078 24h18.059zM397.43 433.062l-1.649-9.426h.282c2.226 4.91 6.796 10.371 13.109 10.371 1.144 0 2.152-.234 2.863-.387l-2.824-16.636c-.867.242-2.238.644-3.953.644-6.016 0-10.098-4.918-11.149-11.008l-2.574-15.058H373.48l7.032 41.5zM257.32 425.21h-.297l-4.191 25.664h-20.926l12.254-42.277-2.898-17.035h19.211l2.898 17.035 25.227 42.277h-19.922zM476.164 451.273h-21.789l-18.004-24.571h-.293l4.461 24.571H421.43l-10.188-59.711h19.207l3.922 25h.285l8.41-25H466l-13.516 30.941zM498.277 451.273l-2.304-13.852h-18.055l2.293 13.852zm-21.086-18.211h18.063l-7.043-41.5h-18.059zM529.246 451.273h-18.57l-2.985-18.211h-6.378l-2.043-11.879h6.375l-2.43-14.41c-.332-1.985-.516-3.805-.485-5.789.11-7.446 5.817-10.368 12.977-10.368 5.238 0 9.094 1.266 11.375 2.141l2.035 11.953c-1.996-.555-3.215-.789-4.215-.789-1.933 0-3.312 1.188-3.347 3.563a8.26 8.26 0 0 0 .183 1.898l1.969 11.801h8.168l2.047 11.879h-8.176z"
          style="fill:#393D29;fill-opacity:1;fill-rule:nonzero;stroke:none"
          transform="matrix(1.25 0 0 -1.25 -125.361 590.77)"/>
</svg>
